<svg width="80" height="80" viewBox="0 0 80 80" xmlns="http://www.w3.org/2000/svg">
  <defs>
    <linearGradient id="grad1" x1="0%" y1="0%" x2="100%" y2="100%">
      <stop offset="0%" style="stop-color:#dc7a00;stop-opacity:1" />
      <stop offset="100%" style="stop-color:#db7b00;stop-opacity:1" />
    </linearGradient>
  </defs>
  
  <!-- Background circle -->
  <circle cx="40" cy="40" r="38" fill="url(#grad1)" stroke="#2f4b57" stroke-width="2"/>
  
  <!-- S Letter -->
  <path d="M25 25 Q25 20 30 20 L50 20 Q55 20 55 25 Q55 30 50 30 L35 30 Q30 30 30 35 Q30 40 35 40 L50 40 Q55 40 55 45 Q55 50 50 50 L30 50 Q25 50 25 55 Q25 60 30 60 L55 60" 
        stroke="#ffffff" 
        stroke-width="4" 
        fill="none" 
        stroke-linecap="round"/>
  
  <!-- Decorative elements -->
  <circle cx="60" cy="20" r="3" fill="#ffffff" opacity="0.8"/>
  <circle cx="65" cy="30" r="2" fill="#ffffff" opacity="0.6"/>
  <circle cx="20" cy="60" r="2" fill="#ffffff" opacity="0.6"/>
</svg>
